HIERARCHY
ROOT Hips
{
	OFFSET 0.000000 0.000000 0.000000
	CHANNELS 6 Xposition Yposition Zposition Zrotation Yrotation Xrotation 
	JOINT LHipJoint
	{
		OFFSET 0.000000 0.000000 0.000000
		CHANNELS 3 Zrotation Yrotation Xrotation
		JOINT LeftUpLeg
		{
			OFFSET 1.363060 -1.794630 0.839290
			CHANNELS 3 Zrotation Yrotation Xrotation
			JOINT LeftLeg
			{
				OFFSET 2.448110 -6.726130 0.000000
				CHANNELS 3 Zrotation Yrotation Xrotation
				JOINT LeftFoot
				{
					OFFSET 2.562200 -7.039590 0.000000
					CHANNELS 3 Zrotation Yrotation Xrotation
					JOINT LeftToeBase
					{
						OFFSET 0.157640 -0.433110 2.322550
						CHANNELS 3 Zrotation Yrotation Xrotation
						End Site
						{
							OFFSET 0.000000 0.000000 0.000000
						}
					}
				}
			}
		}
	}
	JOINT RHipJoint
	{
		OFFSET 0.000000 0.000000 0.000000
		CHANNELS 3 Zrotation Yrotation Xrotation
		JOINT RightUpLeg
		{
			OFFSET -1.305520 -1.794630 0.839290
			CHANNELS 3 Zrotation Yrotation Xrotation
			JOINT RightLeg
			{
				OFFSET -2.542530 -6.985550 0.000000
				CHANNELS 3 Zrotation Yrotation Xrotation
				JOINT RightFoot
				{
					OFFSET -2.568260 -7.056230 0.000000
					CHANNELS 3 Zrotation Yrotation Xrotation
					JOINT RightToeBase
					{
						OFFSET -0.164730 -0.452590 2.363150
						CHANNELS 3 Zrotation Yrotation Xrotation
						End Site
						{
							OFFSET 0.000000 0.000000 0.000000
						}
					}
				}
			}
		}
	}
}
MOTION
Frames: 25
Frame Time: 0.008333
4.453894 17.322666 0.868346 -174.926879 -74.799542 -175.569106 -12.080525 3.291568 1.145048 -6.520341 26.197827 -10.992748 -2.801960 -1.717565 -3.180566 1.015517 8.647780 -0.886654 1.045200 0.000000 -29.927000 8.335493 -3.283623 6.641824 5.198991 7.042846 -9.765078 3.187332 1.777984 -1.929982 0.716084 4.252926 0.266690 0.148100 -0.000000 -34.680300
4.452948 17.327733 0.874486 -174.898802 -74.074182 -175.311919 -12.103527 3.286840 1.095220 -6.715301 26.586944 -11.367437 -2.833143 -1.724800 -3.182379 1.043322 8.849097 -0.883447 1.070700 0.000000 -29.816600 8.300095 -3.269963 6.747978 5.144013 7.401237 -10.342352 3.220780 1.765769 -1.710444 0.777770 4.617638 0.453329 0.206700 0.000000 -34.829900
4.454376 17.332687 0.881120 -174.856804 -73.366856 -175.072928 -12.124328 3.283880 1.043278 -6.908754 26.950747 -11.741453 -2.863281 -1.727457 -3.182738 1.070968 9.040267 -0.878867 1.095400 -0.000000 -29.708000 8.267966 -3.246319 6.836704 5.094581 7.722237 -10.890019 3.255398 1.757962 -1.530340 0.840406 4.981924 0.663334 0.267900 0.000000 -34.979900
4.458270 17.337479 0.888289 -174.802707 -72.684341 -174.852969 -12.142766 3.282892 0.989953 -7.098638 27.286667 -12.111262 -2.892211 -1.725615 -3.183739 1.097931 9.217711 -0.872070 1.119000 -0.000000 -29.602500 8.239547 -3.212716 6.906858 5.052523 8.001686 -11.405563 3.290976 1.754320 -1.385962 0.903161 5.341739 0.893003 0.331000 -0.000000 -35.135600
4.464538 17.342090 0.896036 -174.736776 -72.031977 -174.651495 -12.158822 3.284078 0.935820 -7.283781 27.594069 -12.473990 -2.920001 -1.719609 -3.188739 1.123587 9.377950 -0.860785 1.141600 0.000001 -29.501600 8.215044 -3.169582 6.958475 5.019427 8.238655 -11.888770 3.327268 1.754644 -1.273854 0.965100 5.691990 1.138456 0.395500 -0.000000 -35.298500
4.473300 17.346559 0.904368 -174.661666 -71.412268 -174.470581 -12.172645 3.287289 0.879733 -7.461704 27.878445 -12.824930 -2.946953 -1.709515 -3.200576 1.146921 9.515364 -0.841776 1.162800 -0.000000 -29.407999 8.194671 -3.117333 6.990952 4.997285 8.432261 -12.336580 3.363967 1.758307 -1.190084 1.025481 6.028647 1.397150 0.460600 0.000001 -35.472700
4.484366 17.350894 0.913246 -174.577288 -70.827768 -174.307696 -12.184160 3.292554 0.823015 -7.633344 28.138436 -13.162700 -2.972995 -1.696310 -3.226024 1.167813 9.630986 -0.811807 1.183601 0.000000 -29.322900 8.178267 -3.057050 7.006906 4.985547 8.588488 -12.751306 3.400629 1.765448 -1.134181 1.083124 6.343815 1.664878 0.524800 0.000000 -35.647900
4.497949 17.355143 0.922759 -174.485790 -70.278120 -174.168777 -12.193913 3.299399 0.761839 -7.793900 28.387776 -13.479377 -2.998788 -1.679605 -3.266204 1.184677 9.715864 -0.766658 1.203200 -0.000000 -29.250000 8.166043 -2.989052 7.004740 4.986181 8.707064 -13.125281 3.436919 1.775089 -1.103035 1.137672 6.635843 1.940658 0.587799 0.000000 -35.830500
4.513938 17.359376 0.932889 -174.387522 -69.763404 -174.055251 -12.202191 3.307603 0.694883 -7.941890 28.632448 -13.770067 -3.024531 -1.659733 -3.324353 1.196913 9.767737 -0.703269 1.221800 -0.000000 -29.191000 8.157894 -2.914268 6.985506 4.999105 8.792867 -13.454784 3.472390 1.786942 -1.096664 1.188417 6.900022 2.222188 0.648400 0.000001 -36.013100
4.532364 17.363617 0.943676 -174.284108 -69.284498 -173.969939 -12.209193 3.316806 0.621030 -8.074628 28.874798 -14.027713 -3.049833 -1.636932 -3.404135 1.204328 9.787028 -0.618845 1.239800 -0.000000 -29.146400 8.153850 -2.833244 6.949731 5.023274 8.850578 -13.733926 3.506499 1.800846 -1.117189 1.234671 7.131519 2.507541 0.705299 0.000000 -36.185700
4.553223 17.367908 0.955153 -174.175868 -68.841842 -173.916646 -12.215308 3.326636 0.537644 -8.188458 29.123010 -14.245760 -3.074882 -1.610986 -3.504179 1.206308 9.770461 -0.512358 1.256401 0.000000 -29.117300 8.154076 -2.746624 6.897047 5.057902 8.882798 -13.955457 3.538729 1.816191 -1.164076 1.276147 7.328856 2.795510 0.758000 0.000000 -36.345900
4.576549 17.372290 0.967352 -174.064656 -68.436899 -173.898710 -12.220625 3.336721 0.443440 -8.280170 29.377765 -14.417484 -3.099127 -1.581743 -3.623213 1.203002 9.719388 -0.383986 1.271600 0.000000 -29.102200 8.158754 -2.654738 6.827263 5.101366 8.892924 -14.112471 3.568465 1.832584 -1.238013 1.312423 7.489438 3.084279 0.805400 0.000001 -36.486600
4.602413 17.376769 0.980319 -173.953313 -68.072012 -173.918750 -12.225034 3.346706 0.337407 -8.346648 29.638231 -14.537215 -3.121922 -1.548943 -3.758018 1.194857 9.636515 -0.235322 1.284800 0.000000 -29.098800 8.168264 -2.557739 6.739995 5.151111 8.883397 -14.199261 3.595002 1.849482 -1.338104 1.343210 7.611845 3.371840 0.846700 -0.000000 -36.603999
4.630710 17.381299 0.994084 -173.842368 -67.749738 -173.978515 -12.228400 3.356465 0.219432 -8.385301 29.900681 -14.600860 -3.142570 -1.512397 -3.904024 1.182568 9.525479 -0.069777 1.295800 -0.000000 -29.103400 8.182896 -2.455870 6.635171 5.204745 8.856423 -14.212230 3.617737 1.866391 -1.462501 1.368308 7.695054 3.656322 0.881200 0.000000 -36.696800
4.661297 17.385889 1.008649 -173.732778 -67.472069 -174.077972 -12.230442 3.365956 0.090239 -8.394339 30.159189 -14.606752 -3.160318 -1.471966 -4.055171 1.167154 9.391738 0.107966 1.304000 0.000000 -29.111700 8.202933 -2.349424 6.513134 5.259140 8.814104 -14.150827 3.636066 1.882688 -1.607035 1.387648 7.739115 3.935368 0.908100 0.000000 -36.766800
4.694111 17.390490 1.023944 -173.627662 -67.240749 -174.215855 -12.230602 3.375112 -0.048944 -8.373598 30.406799 -14.555814 -3.174481 -1.427580 -4.204862 1.149795 9.241791 0.292600 1.309300 -0.000000 -29.118401 8.228572 -2.238585 6.374684 5.311534 8.758917 -14.018220 3.649461 1.897631 -1.765738 1.401261 7.744581 4.206485 0.927000 0.000000 -36.818100
4.728748 17.395012 1.039891 -173.525952 -67.055645 -174.389021 -12.228422 3.384000 -0.196009 -8.324247 30.635944 -14.452513 -3.184638 -1.379520 -4.346671 1.131707 9.082393 0.477712 1.311500 0.000000 -29.119400 8.259728 -2.123967 6.221610 5.359354 8.694285 -13.821501 3.657656 1.910660 -1.931853 1.409300 7.712576 4.467206 0.937500 -0.000000 -36.857500
4.764939 17.399462 1.056336 -173.428815 -66.914936 -174.592919 -12.223333 3.392647 -0.348644 -8.249047 30.839739 -14.303352 -3.190531 -1.328250 -4.474684 1.114065 8.920953 0.657956 1.311000 0.000000 -29.110300 8.296215 -2.006403 6.056059 5.400903 8.623198 -13.571247 3.660582 1.921114 -2.097344 1.412128 7.645794 4.715408 0.939700 -0.000000 -36.893800
4.802027 17.403752 1.073151 -173.333590 -66.814418 -174.821123 -12.214896 3.400897 -0.504471 -8.152179 31.012867 -14.118505 -3.192316 -1.274608 -4.584166 1.097880 8.764231 0.827945 1.308200 0.000000 -29.088200 8.337574 -1.887078 5.880957 5.434785 8.550452 -13.281470 3.658480 1.928609 -2.254690 1.410238 7.547629 4.949387 0.933800 -0.000000 -36.935200
4.839471 17.407903 1.090070 -173.238984 -66.747028 -175.065159 -12.202739 3.408382 -0.661548 -8.039559 31.152479 -13.909992 -3.190479 -1.219716 -4.671880 1.083940 8.618571 0.983692 1.303800 -0.000000 -29.051100 8.383157 -1.767450 5.699438 5.460964 8.480891 -12.968868 3.651896 1.932881 -2.396826 1.404303 7.423033 5.167867 0.920600 0.000000 -36.988800
4.876575 17.411911 1.106854 -173.144456 -66.704210 -175.315022 -12.186810 3.414599 -0.818433 -7.917585 31.258805 -13.690168 -3.185826 -1.164898 -4.736280 1.072667 8.488746 1.123054 1.298500 0.000000 -28.999100 8.432205 -1.649347 5.514611 5.479433 8.418765 -12.650561 3.641528 1.933755 -2.517722 1.395189 7.278778 5.370560 0.901500 -0.000000 -37.061300
4.912738 17.415893 1.123307 -173.051397 -66.677482 -175.562386 -12.167522 3.419002 -0.973844 -7.790579 31.331923 -13.465700 -3.178688 -1.111570 -4.779308 1.064415 8.380387 1.247045 1.293900 0.000001 -28.932100 8.484023 -1.534778 5.327995 5.492011 8.361722 -12.339181 3.628358 1.931119 -2.613980 1.384197 7.126331 5.557893 0.879100 -0.000000 -37.152500
4.947018 17.419768 1.139063 -172.963409 -66.652989 -175.789351 -12.146237 3.421210 -1.124115 -7.671169 31.383850 -13.259360 -3.171487 -1.061884 -4.798138 1.058642 8.292261 1.353137 1.289800 -0.000000 -28.854200 8.535262 -1.428487 5.150734 5.496386 8.327301 -12.058023 3.613223 1.925569 -2.684025 1.371620 6.966530 5.729625 0.853600 -0.000000 -37.267699
4.978698 17.423690 1.153912 -172.890144 -66.623064 -175.984938 -12.124949 3.421350 -1.264652 -7.565616 31.422228 -13.078241 -3.165078 -1.017722 -4.795132 1.054982 8.225871 1.443374 1.287200 -0.000000 -28.766900 8.583289 -1.335206 4.989947 5.492718 8.314752 -11.818410 3.597052 1.917097 -2.727087 1.358647 6.810428 5.885897 0.827700 -0.000000 -37.404500
5.007465 17.427717 1.167756 -172.844402 -66.585716 -176.147533 -12.106416 3.420767 -1.389527 -7.474472 31.453570 -12.915895 -3.159225 -0.980468 -4.774894 1.053017 8.183000 1.522656 1.287200 0.000000 -28.672600 8.625580 -1.260091 4.851632 5.481826 8.314770 -11.617545 3.580635 1.905482 -2.745820 1.346761 6.672391 6.028282 0.805200 -0.000000 -37.551200
